<?xml version="1.0" encoding="UTF-8" ?>
<!DOCTYPE svg PUBLIC "-//W3C//DTD SVG 1.1//EN" "http://www.w3.org/Graphics/SVG/1.1/DTD/svg11.dtd">
<svg width="222pt" height="254pt" viewBox="0 0 473 541" version="1.1" xmlns="http://www.w3.org/2000/svg">
<g id="ffffffff">
</g>
<g id="f740e0eff">
<path fill="#740e0e" opacity="1.00" d=" M 235.50 2.59 C 235.92 2.10 236.77 1.11 237.19 0.62 L 237.16 0.98 C 237.07 1.92 236.89 3.81 236.80 4.76 C 232.95 37.45 230.13 70.26 226.72 103.01 C 218.53 185.40 210.39 267.79 202.07 350.17 C 146.38 350.05 90.69 350.15 35.00 350.11 C 101.83 234.27 168.69 118.45 235.50 2.59 Z" />
<path fill="#740e0e" opacity="1.00" d=" M 118.24 503.38 C 121.03 503.37 123.82 503.37 126.62 503.37 C 129.81 509.14 133.15 514.84 136.11 520.74 C 138.90 514.77 142.39 509.17 145.53 503.39 C 148.30 503.37 151.06 503.37 153.83 503.37 C 153.85 515.33 153.84 527.29 153.84 539.24 C 151.10 539.25 148.36 539.25 145.63 539.25 C 145.64 532.11 145.55 524.96 145.76 517.83 C 143.23 522.25 140.72 526.68 137.99 530.99 C 136.67 530.97 135.36 530.96 134.05 530.96 C 131.38 526.42 128.42 522.03 126.31 517.19 C 126.63 524.54 126.47 531.89 126.50 539.25 C 123.74 539.25 120.98 539.25 118.23 539.22 C 118.24 527.27 118.22 515.33 118.24 503.38 Z" />
<path fill="#740e0e" opacity="1.00" d=" M 181.48 503.38 C 189.49 503.37 197.51 503.37 205.52 503.38 C 205.52 505.77 205.52 508.17 205.52 510.57 C 200.27 510.57 195.01 510.55 189.76 510.58 C 189.76 512.94 189.76 515.30 189.75 517.67 C 194.37 517.71 198.99 517.71 203.60 517.67 C 203.63 519.97 203.64 522.27 203.64 524.58 C 199.01 524.56 194.39 524.56 189.76 524.57 C 189.75 527.06 189.75 529.56 189.76 532.06 C 195.03 532.10 200.30 531.98 205.57 532.13 C 205.53 534.50 205.51 536.88 205.49 539.26 C 197.49 539.24 189.50 539.24 181.51 539.26 C 181.43 527.30 181.50 515.34 181.48 503.38 Z" />
<path fill="#740e0e" opacity="1.00" d=" M 231.52 503.39 C 239.53 503.86 248.41 501.74 255.63 506.24 C 262.00 510.47 263.01 519.14 261.71 526.09 C 260.87 531.68 256.84 536.74 251.30 538.24 C 244.87 540.02 238.11 538.96 231.53 539.25 C 231.52 527.30 231.54 515.34 231.52 503.39 M 239.74 510.46 C 239.86 517.72 239.76 524.99 239.80 532.25 C 244.16 532.34 249.93 532.58 252.23 528.02 C 254.09 523.67 254.09 518.34 251.98 514.09 C 249.51 509.86 243.95 510.26 239.74 510.46 Z" />
<path fill="#740e0e" opacity="1.00" d=" M 287.00 503.00 C 290.00 503.00 293.00 503.00 296.00 503.00 C 296.00 515.00 296.00 527.00 296.00 539.00 C 293.00 539.00 290.00 539.00 287.00 539.00 C 287.00 527.00 287.00 515.00 287.00 503.00 Z" />
<path fill="#740e0e" opacity="1.00" d=" M 332.43 503.38 C 335.85 503.37 339.26 503.37 342.68 503.37 C 347.03 515.33 351.41 527.28 355.75 539.25 C 352.79 539.24 349.82 539.25 346.86 539.25 C 346.00 536.73 345.12 534.23 344.22 531.74 C 339.71 531.76 335.21 531.76 330.71 531.75 C 329.84 534.24 328.98 536.74 328.12 539.25 C 325.24 539.25 322.36 539.25 319.49 539.24 C 323.80 527.29 328.14 515.34 332.43 503.38 M 337.35 510.75 C 336.15 515.53 334.58 520.20 333.02 524.87 C 335.95 524.87 338.88 524.87 341.81 524.87 C 340.05 520.25 338.74 515.49 337.35 510.75 Z" />
</g>
<g id="e10000ff">
<path fill="#e10000" opacity="1.00" d=" M 237.16 0.98 C 237.80 1.82 238.28 2.75 238.58 3.76 C 239.38 6.75 240.43 9.66 241.59 12.53 C 284.15 125.05 326.60 237.61 369.20 350.11 C 325.15 350.15 281.09 350.05 237.04 350.16 C 236.98 241.45 237.02 132.74 237.01 24.03 C 237.06 17.60 236.90 11.18 236.80 4.76 C 236.89 3.81 237.07 1.92 237.16 0.98 Z" />
</g>
<g id="f18f94ff">
<path fill="#f18f94" opacity="1.00" d=" M 238.58 3.76 C 239.01 4.24 239.86 5.20 240.29 5.68 C 306.48 120.49 372.76 235.25 438.95 350.07 C 415.70 350.15 392.45 350.08 369.20 350.11 C 326.60 237.61 284.15 125.05 241.59 12.53 C 240.43 9.66 239.38 6.75 238.58 3.76 Z" />
</g>
<g id="a30e12ff">
<path fill="#a30e12" opacity="1.00" d=" M 226.72 103.01 C 230.13 70.26 232.95 37.45 236.80 4.76 C 236.90 11.18 237.06 17.60 237.01 24.03 C 237.02 132.74 236.98 241.45 237.04 350.16 C 225.38 350.26 213.72 350.25 202.07 350.17 C 210.39 267.79 218.53 185.40 226.72 103.01 Z" />
</g>
<g id="f000000ff">
<path fill="#000000" opacity="1.00" d=" M 12.41 414.49 C 20.34 410.58 29.90 410.86 38.16 413.56 C 44.40 415.54 48.67 421.43 49.31 427.86 C 44.54 429.04 39.79 430.26 35.02 431.45 C 34.42 425.44 27.68 421.85 22.24 424.14 C 18.34 425.33 17.40 430.87 20.35 433.53 C 24.42 436.88 29.90 437.44 34.62 439.49 C 39.89 441.57 45.51 444.55 47.76 450.09 C 50.08 456.15 49.88 463.59 46.00 468.98 C 41.84 474.48 34.65 476.36 28.08 476.82 C 21.60 477.17 14.62 476.71 9.00 473.13 C 4.90 470.54 2.38 466.13 1.04 461.58 C 5.41 459.67 9.78 457.74 14.14 455.78 C 15.40 463.25 23.96 468.23 30.93 464.84 C 35.48 463.02 35.17 455.90 30.80 454.03 C 24.36 450.67 16.80 449.67 10.87 445.26 C 0.35 438.46 1.13 420.12 12.41 414.49 Z" />
<path fill="#000000" opacity="1.00" d=" M 83.36 412.99 C 88.18 412.95 93.00 412.97 97.83 412.97 C 97.85 425.96 97.80 438.95 97.85 451.94 C 98.00 456.05 98.66 460.99 102.52 463.35 C 106.50 465.44 111.58 465.44 115.63 463.52 C 119.73 461.31 120.52 456.20 120.66 451.98 C 120.73 438.97 120.66 425.97 120.69 412.97 C 125.47 412.97 130.26 412.96 135.05 412.97 C 135.04 426.99 135.06 441.00 135.04 455.02 C 135.01 461.25 132.94 467.93 127.76 471.79 C 121.59 476.44 113.43 477.24 105.95 476.81 C 99.08 476.38 91.69 474.20 87.40 468.48 C 84.29 464.36 83.31 459.05 83.35 454.00 C 83.37 440.33 83.36 426.66 83.36 412.99 Z" />
<path fill="#000000" opacity="1.00" d=" M 173.09 412.98 C 177.99 412.98 182.89 412.97 187.79 412.98 C 193.28 423.09 199.22 432.97 204.33 443.28 C 209.26 432.86 215.28 422.99 220.92 412.94 C 225.71 413.01 230.50 412.96 235.30 412.98 C 235.31 433.86 235.27 454.74 235.32 475.62 C 230.55 475.70 225.78 475.61 221.02 475.68 C 221.00 462.75 220.62 449.80 221.39 436.88 C 217.76 445.48 212.37 453.13 207.68 461.17 C 205.37 461.17 203.07 461.17 200.77 461.19 C 196.15 453.09 190.52 445.50 187.18 436.75 C 187.78 449.71 187.50 462.68 187.56 475.65 C 182.74 475.66 177.92 475.65 173.10 475.66 C 173.07 454.76 173.10 433.87 173.09 412.98 Z" />
<path fill="#000000" opacity="1.00" d=" M 275.06 412.98 C 279.95 412.98 284.85 412.97 289.75 412.98 C 295.19 423.18 301.42 432.97 306.22 443.50 C 311.14 432.97 317.20 423.01 322.93 412.91 C 327.71 413.04 332.48 412.95 337.26 412.98 C 337.29 433.85 337.22 454.73 337.30 475.60 C 332.53 475.72 327.76 475.59 323.00 475.70 C 322.92 462.73 322.61 449.74 323.35 436.79 C 319.79 445.45 314.32 453.09 309.65 461.16 C 307.35 461.17 305.04 461.17 302.74 461.19 C 298.20 453.12 292.41 445.62 289.30 436.82 C 289.54 449.76 289.56 462.71 289.52 475.65 C 284.70 475.66 279.88 475.65 275.06 475.66 C 275.04 454.77 275.06 433.87 275.06 412.98 Z" />
<path fill="#000000" opacity="1.00" d=" M 377.00 413.00 C 382.00 413.00 387.00 413.00 392.00 413.00 C 392.00 434.00 392.00 455.00 392.00 476.00 C 387.00 476.00 382.00 476.00 377.00 476.00 C 377.00 455.00 377.00 434.00 377.00 413.00 Z" />
<path fill="#000000" opacity="1.00" d=" M 424.12 412.98 C 440.41 413.02 456.71 412.89 473.00 413.05 L 473.00 425.52 C 467.16 425.55 461.33 425.53 455.50 425.54 C 455.49 442.24 455.49 458.94 455.50 475.64 C 450.74 475.66 445.99 475.65 441.24 475.65 C 441.23 458.95 441.24 442.24 441.24 425.54 C 435.53 425.53 429.83 425.53 424.12 425.54 C 424.11 421.35 424.11 417.16 424.12 412.98 Z" />
</g>
</svg>
